<svg version="1.1" id="Layer_1" xmlns="http://www.w3.org/2000/svg" xmlns:xlink="http://www.w3.org/1999/xlink" x="0px" y="0px" viewBox="0 0 1920 580" style="enable-background:new 0 0 1920 580;" xml:space="preserve">
 <style type="text/css">
  .st0{fill:#FC654A;}
	.st1{fill:#A9EFD2;}
	.st2{fill:#5267F6;}
	.st3{fill:#FFFFFF;}
	.st4{fill:#292E4B;}
 </style>
 <g>
  <g>
   <circle class="st0" cx="1888.58" cy="478.45" r="29.9">
   </circle>
  </g>
  <g>
   <g>
    <g>
     <circle class="st1" cx="254.36" cy="257.13" r="255.89">
     </circle>
    </g>
   </g>
   <g>
    <g>
     <path class="st2" d="M400.84,581.24c-81.7,0-148.16-66.47-148.16-148.16c0-81.7,66.47-148.16,148.16-148.16
					c81.7,0,148.16,66.47,148.16,148.16C549.01,514.78,482.54,581.24,400.84,581.24z M400.84,322.04
					c-61.23,0-111.04,49.81-111.04,111.04c0,61.23,49.81,111.04,111.04,111.04c61.23,0,111.04-49.81,111.04-111.04
					C511.88,371.85,462.07,322.04,400.84,322.04z">
     </path>
    </g>
   </g>
  </g>
  <g>
   <path class="st3" d="M913.59,357.23h-28.08h-32.48c-2.56,0-4.64,2.08-4.64,4.64V503.7c0,2.56,2.08,4.64,4.64,4.64h27.84
			c2.56,0,4.64-2.08,4.64-4.64v-41.73c0-2.56,2.08-4.64,4.64-4.64h23.43c28.33,0,51.3-22.41,51.3-50.05
			C964.89,379.64,941.92,357.23,913.59,357.23z M908.65,426.39h-18.49c-2.56,0-4.64-2.08-4.64-4.64v-28.95
			c0-2.56,2.08-4.64,4.64-4.64h17.69c10.47,0,19.59,8.06,19.91,18.53C928.08,417.52,919.4,426.39,908.65,426.39z">
   </path>
   <path class="st3" d="M1375.9,357.23h-51.04h-32.48c-2.56,0-4.64,2.08-4.64,4.64v26.3v29.15v30.94v29.15v26.3
			c0,2.56,2.08,4.64,4.64,4.64h32.48h51.04c2.56,0,4.64-2.08,4.64-4.64v-21.65c0-2.56-2.08-4.64-4.64-4.64h-46.4
			c-2.56,0-4.64-2.08-4.64-4.64V452.9c0-2.56,2.08-4.64,4.64-4.64h37.12c2.56,0,4.64-2.08,4.64-4.64v-21.65
			c0-2.56-2.08-4.64-4.64-4.64h-37.12c-2.56,0-4.64-2.08-4.64-4.64v-19.87c0-2.56,2.08-4.64,4.64-4.64h46.4
			c2.56,0,4.64-2.08,4.64-4.64v-21.65C1380.54,359.31,1378.46,357.23,1375.9,357.23z">
   </path>
   <path class="st3" d="M1744.61,388.16h46.4c2.56,0,4.64-2.08,4.64-4.64v-21.65c0-2.56-2.08-4.64-4.64-4.64h-51.04h-32.48
			c-2.56,0-4.64,2.08-4.64,4.64v26.3v29.15v30.94v29.15v26.3c0,2.56,2.08,4.64,4.64,4.64h32.48h51.04c2.56,0,4.64-2.08,4.64-4.64
			v-21.65c0-2.56-2.08-4.64-4.64-4.64h-46.4c-2.56,0-4.64-2.08-4.64-4.64V452.9c0-2.56,2.08-4.64,4.64-4.64h37.12
			c2.56,0,4.64-2.08,4.64-4.64v-21.65c0-2.56-2.08-4.64-4.64-4.64h-37.12c-2.56,0-4.64-2.08-4.64-4.64v-19.87
			C1739.97,390.24,1742.05,388.16,1744.61,388.16z">
   </path>
   <path class="st3" d="M1573.82,450.86c15.59-8.58,26.13-24.87,26.13-43.58c0-27.64-22.97-50.05-51.3-50.05h-28.08h-32.48
			c-2.56,0-4.64,2.08-4.64,4.64V503.7c0,2.56,2.08,4.64,4.64,4.64h27.84c2.56,0,4.64-2.08,4.64-4.64v-42.15
			c0-3.56,2.88-6.44,6.44-6.44c2.25,0,4.34,1.18,5.51,3.11l28.95,47.89c0.84,1.39,2.35,2.24,3.97,2.24h26.5
			c4.82,0,7.79-5.26,5.3-9.39l-25.16-41.66C1570.71,455.04,1571.51,452.13,1573.82,450.86z M1543.7,426.39h-18.49
			c-2.56,0-4.64-2.08-4.64-4.64v-28.95c0-2.56,2.08-4.64,4.64-4.64h17.61c10.51,0,19.72,8.1,19.99,18.61
			C1563.09,417.56,1554.43,426.39,1543.7,426.39z">
   </path>
   <path class="st3" d="M1195.6,224.12c15.59-8.58,26.13-24.87,26.13-43.58c0-27.64-22.97-50.05-51.3-50.05h-28.08h-32.48
			c-2.56,0-4.64,2.08-4.64,4.64v141.83c0,2.56,2.08,4.64,4.64,4.64h27.84c2.56,0,4.64-2.08,4.64-4.64v-42.15
			c0-3.56,2.88-6.44,6.44-6.44c2.25,0,4.34,1.18,5.51,3.11l28.95,47.89c0.84,1.39,2.35,2.24,3.97,2.24h26.5
			c4.82,0,7.79-5.26,5.3-9.39l-25.16-41.66C1192.49,228.31,1193.29,225.39,1195.6,224.12z M1165.48,199.66h-18.49
			c-2.56,0-4.64-2.08-4.64-4.64v-28.95c0-2.56,2.08-4.64,4.64-4.64h17.61c10.51,0,19.72,8.1,19.99,18.61
			C1184.87,190.83,1176.21,199.66,1165.48,199.66z">
   </path>
   <path class="st3" d="M1434.99,137.94c2.32-3.06,0.14-7.44-3.7-7.44h-29.69c-1.93,0-3.75,0.9-4.92,2.44l-40.4,53.06
			c-0.99,1.31-2.54,2.07-4.18,2.07c-2.9,0-5.26-2.35-5.26-5.26v-47.68c0-2.56-2.08-4.64-4.64-4.64h-27.84
			c-2.56,0-4.64,2.08-4.64,4.64v141.83c0,2.56,2.08,4.64,4.64,4.64h27.84c2.56,0,4.64-2.08,4.64-4.64v-41.76
			c0-3.78,3.06-6.84,6.84-6.84c2.05,0,3.99,0.92,5.29,2.5l39.73,48.47c1.18,1.43,2.93,2.26,4.78,2.26h27.81
			c3.84,0,6.01-4.39,3.7-7.44l-50.23-66.24c-0.84-1.11-0.84-2.63,0-3.74L1434.99,137.94z">
   </path>
   <path class="st3" d="M808.31,130.48h-27.48c-2.08,0-3.91,1.38-4.47,3.39l-18.46,65.77c-1.27,4.51-7.67,4.51-8.94,0l-18.46-65.75
			c-0.56-2-2.39-3.39-4.47-3.39h-30.61c-2.08,0-3.91,1.38-4.47,3.39l-18.46,65.75c-1.27,4.51-7.67,4.51-8.94,0l-18.46-65.75
			c-0.56-2-2.39-3.39-4.47-3.39h-27.48c-3.07,0-5.3,2.93-4.47,5.89l39.82,141.83c0.56,2,2.39,3.39,4.47,3.39l30.08-0.02
			c2.08,0,3.9-1.38,4.46-3.39l18.73-66.66c1.27-4.51,7.67-4.51,8.93,0l18.72,66.67c0.56,2,2.39,3.39,4.47,3.39l30.08-0.02
			c2.08,0,3.9-1.38,4.46-3.39l39.85-141.84C813.61,133.41,811.39,130.48,808.31,130.48z">
   </path>
   <path class="st3" d="M1179.3,357.23h-27.84c-2.56,0-4.64,2.08-4.64,4.64v50.81c0,2.56-2.08,4.64-4.64,4.64h-43.57
			c-2.56,0-4.64-2.08-4.64-4.64v-50.81c0-2.56-2.08-4.64-4.64-4.64h-27.84c-2.56,0-4.64,2.08-4.64,4.64v55.45v30.94v55.45
			c0,2.56,2.08,4.64,4.64,4.64h27.84c2.56,0,4.64-2.08,4.64-4.64v-50.81c0-2.56,2.08-4.64,4.64-4.64h43.57
			c2.56,0,4.64,2.08,4.64,4.64v50.81c0,2.56,2.08,4.64,4.64,4.64h27.84c2.56,0,4.64-2.08,4.64-4.64v-55.45v-30.94v-55.45
			C1183.94,359.3,1181.86,357.23,1179.3,357.23z">
   </path>
   <path class="st3" d="M951,129.17c-44.19,0-76.99,34.43-76.99,76.91c0,42.48,32.85,76.91,77.04,76.91
			c44.19,0,76.99-34.43,76.99-76.91C1028.04,163.61,995.19,129.17,951,129.17z M951.04,245.92c-22.89,0-39.91-17.84-39.91-39.84
			c0-22,16.99-39.84,39.88-39.84c22.89,0,39.91,17.84,39.91,39.84C990.92,228.09,973.93,245.92,951.04,245.92z">
   </path>
   <path class="st3" d="M699.65,417.76c0,0-22.03-4.42-21.86-18.71c0-6.75,8.15-12.23,18.2-12.23c8.63,0,15.47,4.37,17.73,10.29
			c0.58,1.53,2.39,3.14,4.37,3.14h29.97c1.84,0,3.27-1.6,3.1-3.43c-2.18-22.9-26.05-40.94-55.16-40.94
			c-30.56,0-55.33,19.86-55.33,44.37c0,0-2.76,35.73,51.6,47.54c0,0,22.2,4.61,21.93,18.74c-0.13,6.75-8.15,12.23-18.2,12.23
			c-8.63,0-15.05-3.96-17.73-10.29c-0.77-1.83-2.39-3.14-4.37-3.14h-29.97c-1.84,0-3.27,1.6-3.1,3.43
			c2.18,22.9,26.05,40.94,55.16,40.94c30.56,0,55.33-19.86,55.33-44.37C751.31,465.33,753.99,429.25,699.65,417.76z">
   </path>
  </g>
 </g>
</svg>